HIERARCHY
ROOT Junyuan_V1:Solving:Hips
{
	OFFSET 0.000000 0.000000 0.000000
	CHANNELS 6 Xposition Yposition Zposition Xrotation Yrotation Zrotation
	JOINT Junyuan_V1:Solving:Spine
	{
		OFFSET 0.000000 -11.587388 2.561626
		CHANNELS 6 Xposition Yposition Zposition Xrotation Yrotation Zrotation
		JOINT Junyuan_V1:Solving:Spine1
		{
			OFFSET 0.000000 -9.293384 1.638677
			CHANNELS 6 Xposition Yposition Zposition Xrotation Yrotation Zrotation
			JOINT Junyuan_V1:Solving:Spine2
			{
				OFFSET 0.000000 -9.400841 0.822469
				CHANNELS 6 Xposition Yposition Zposition Xrotation Yrotation Zrotation
				JOINT Junyuan_V1:Solving:Spine3
				{
					OFFSET 0.000000 -9.436749 0.000000
					CHANNELS 6 Xposition Yposition Zposition Xrotation Yrotation Zrotation
					JOINT Junyuan_V1:Solving:Neck
					{
						OFFSET 0.000000 -12.132965 -1.213294
						CHANNELS 6 Xposition Yposition Zposition Xrotation Yrotation Zrotation
						JOINT Junyuan_V1:Solving:Neck1
						{
							OFFSET 0.000000 -6.347839 -0.555364
							CHANNELS 6 Xposition Yposition Zposition Xrotation Yrotation Zrotation
							JOINT Junyuan_V1:Solving:Head
							{
								OFFSET 0.000000 -6.275284 -1.106502
								CHANNELS 6 Xposition Yposition Zposition Xrotation Yrotation Zrotation
								JOINT Junyuan_V1:Solving:HeadEnd
								{
									OFFSET 0.000000 -9.728081 0.000002
									CHANNELS 6 Xposition Yposition Zposition Xrotation Yrotation Zrotation
									End Site
									{
										OFFSET 0.000000 -9.728081 0.000002
									}
								}
							}
						}
					}
					JOINT Junyuan_V1:Solving:RightShoulder
					{
						OFFSET 0.000000 -8.666405 -5.270916
						CHANNELS 6 Xposition Yposition Zposition Xrotation Yrotation Zrotation
						JOINT Junyuan_V1:Solving:RightArm
						{
							OFFSET -19.077805 -0.000008 0.000000
							CHANNELS 6 Xposition Yposition Zposition Xrotation Yrotation Zrotation
							JOINT Junyuan_V1:Solving:RightForeArm
							{
								OFFSET -27.209019 -0.000008 0.000000
								CHANNELS 6 Xposition Yposition Zposition Xrotation Yrotation Zrotation
								JOINT Junyuan_V1:Solving:RightHand
								{
									OFFSET -21.734264 -0.000008 0.000000
									CHANNELS 6 Xposition Yposition Zposition Xrotation Yrotation Zrotation
									JOINT Junyuan_V1:Solving:RightHandThumb1
									{
										OFFSET -3.883522 2.884647 -2.887744
										CHANNELS 6 Xposition Yposition Zposition Xrotation Yrotation Zrotation
										End Site
										{
											OFFSET -5.627335 0.000000 -5.679366
										}
									}
									JOINT Junyuan_V1:Solving:RightHandMiddle1
									{
										OFFSET -10.356049 -0.000004 0.066385
										CHANNELS 6 Xposition Yposition Zposition Xrotation Yrotation Zrotation
										End Site
										{
											OFFSET -7.995132 -0.000004 0.000000
										}
									}
								}
							}
						}
					}
					JOINT Junyuan_V1:Solving:LeftShoulder
					{
						OFFSET 0.000000 -8.666405 -5.270916
						CHANNELS 6 Xposition Yposition Zposition Xrotation Yrotation Zrotation
						JOINT Junyuan_V1:Solving:LeftArm
						{
							OFFSET 19.077805 -0.000008 0.000000
							CHANNELS 6 Xposition Yposition Zposition Xrotation Yrotation Zrotation
							JOINT Junyuan_V1:Solving:LeftForeArm
							{
								OFFSET 27.209019 -0.000008 0.000000
								CHANNELS 6 Xposition Yposition Zposition Xrotation Yrotation Zrotation
								JOINT Junyuan_V1:Solving:LeftHand
								{
									OFFSET 21.734264 -0.000008 0.000000
									CHANNELS 6 Xposition Yposition Zposition Xrotation Yrotation Zrotation
									JOINT Junyuan_V1:Solving:LeftHandThumb1
									{
										OFFSET 3.883522 2.884647 -2.887744
										CHANNELS 6 Xposition Yposition Zposition Xrotation Yrotation Zrotation
										End Site
										{
											OFFSET 5.627335 0.000000 -5.679366
										}
									}
									JOINT Junyuan_V1:Solving:LeftHandMiddle1
									{
										OFFSET 10.356049 -0.000004 0.066385
										CHANNELS 6 Xposition Yposition Zposition Xrotation Yrotation Zrotation
										End Site
										{
											OFFSET 7.995132 -0.000004 0.000000
										}
									}
								}
							}
						}
					}
				}
			}
		}
	}
	JOINT Junyuan_V1:Solving:RightUpLeg
	{
		OFFSET -10.145194 0.000000 0.000000
		CHANNELS 6 Xposition Yposition Zposition Xrotation Yrotation Zrotation
		JOINT Junyuan_V1:Solving:RightLeg
		{
			OFFSET 0.000000 45.059078 -0.000006
			CHANNELS 6 Xposition Yposition Zposition Xrotation Yrotation Zrotation
			JOINT Junyuan_V1:Solving:RightFoot
			{
				OFFSET 0.000000 37.058613 -0.000006
				CHANNELS 6 Xposition Yposition Zposition Xrotation Yrotation Zrotation
				JOINT Junyuan_V1:Solving:RightForeFoot
				{
					OFFSET 0.000000 3.397476 -0.000000
					CHANNELS 6 Xposition Yposition Zposition Xrotation Yrotation Zrotation
					JOINT Junyuan_V1:Solving:RightToeBase
					{
						OFFSET 0.000000 0.000000 -13.305598
						CHANNELS 6 Xposition Yposition Zposition Xrotation Yrotation Zrotation
						JOINT Junyuan_V1:Solving:RightToeBaseEnd
						{
							OFFSET 0.000000 0.000000 -4.190945
							CHANNELS 6 Xposition Yposition Zposition Xrotation Yrotation Zrotation
							End Site
							{
								OFFSET 0.000000 -4.190948 0.000000
							}
						}
					}
				}
			}
		}
	}
	JOINT Junyuan_V1:Solving:LeftUpLeg
	{
		OFFSET 10.145194 0.000000 0.000000
		CHANNELS 6 Xposition Yposition Zposition Xrotation Yrotation Zrotation
		JOINT Junyuan_V1:Solving:LeftLeg
		{
			OFFSET 0.000000 45.059078 -0.000006
			CHANNELS 6 Xposition Yposition Zposition Xrotation Yrotation Zrotation
			JOINT Junyuan_V1:Solving:LeftFoot
			{
				OFFSET 0.000000 37.058613 -0.000006
				CHANNELS 6 Xposition Yposition Zposition Xrotation Yrotation Zrotation
				JOINT Junyuan_V1:Solving:LeftForeFoot
				{
					OFFSET 0.000000 3.397476 -0.000000
					CHANNELS 6 Xposition Yposition Zposition Xrotation Yrotation Zrotation
					JOINT Junyuan_V1:Solving:LeftToeBase
					{
						OFFSET 0.000000 0.000000 -13.305598
						CHANNELS 6 Xposition Yposition Zposition Xrotation Yrotation Zrotation
						JOINT Junyuan_V1:Solving:LeftToeBaseEnd
						{
							OFFSET 0.000000 0.000000 -4.652039
							CHANNELS 6 Xposition Yposition Zposition Xrotation Yrotation Zrotation
							End Site
							{
								OFFSET 0.000000 -4.652039 0.000000
							}
						}
					}
				}
			}
		}
	}
}
MOTION
Frames: 4
Frame Time: 0.041667
-28.451078 6.264055 -88.570709 248.794176 -111.542679 162.087178 0.000004 -11.587395 2.561623 14.794673 0.467393 -0.167699 -0.000000 -9.293398 1.638676 1.264844 -0.084751 -0.111057 0.000002 -9.400829 0.822468 -1.762664 -2.037924 0.504032 0.000002 -9.436752 0.000002 0.992349 -1.570742 0.433248 0.000004 -12.132988 -1.213302 -1.852207 7.756362 -1.302059 0.000004 -6.347854 -0.555362 -1.312296 8.841297 4.060361 -0.000001 -6.275308 -1.106503 0.892206 0.090190 2.596486 0.000007 -9.728096 0.000002 0.000002 -0.000002 0.000000 0.000007 -8.666428 -5.270926 -0.000008 19.901901 6.274801 -19.077801 0.000002 0.000006 -5.683447 -37.612390 -82.385031 -27.209026 -0.000010 -0.000008 13.672053 -24.857524 5.838584 -21.734268 0.000004 0.000012 -0.047544 -2.467632 -1.104212 -3.883504 2.884638 -2.887756 -0.000002 -0.000007 0.000003 -10.356058 -0.000014 0.066384 -0.000006 -0.000007 -0.000002 0.000004 -8.666431 -5.270927 -0.000008 -24.573282 -12.988773 19.077793 0.000010 -0.000001 -13.381477 15.715065 65.517353 27.208986 -0.000020 -0.000015 454.707714 33.409020 -458.506228 21.734245 0.000002 -0.000009 -2.468428 -15.074977 -9.411229 3.883510 2.884637 -2.887758 -0.000002 0.000007 -0.000005 10.356050 -0.000010 0.066388 -0.000001 0.000000 0.000002 -10.145189 -0.000010 -0.000002 8.937363 10.336868 0.222231 -0.000000 45.059059 -0.000002 -0.048522 -0.000001 0.000000 -0.000002 37.058624 0.000002 2.846897 -11.500665 6.674716 0.000008 3.397476 -0.000003 0.000000 -0.000001 -0.000003 0.000002 0.000012 -13.305598 4.677595 0.000001 -0.000001 0.000011 0.000001 -4.190950 0.000002 -0.000000 -0.000003 10.145197 -0.000020 0.000000 12.282559 -27.026377 -2.715322 -0.000001 45.059052 -0.000009 1.474443 0.000000 -0.000000 -0.000001 37.058594 -0.000010 -6.678807 -12.603944 8.355048 0.000001 3.397476 0.000001 -0.000000 -0.000001 0.000000 -0.000003 -0.000013 -13.305605 15.031930 0.000001 -0.000002 -0.000001 0.000007 -4.652029 -0.000003 0.000002 -0.000002 
-28.453346 6.263428 -88.571815 248.790242 -111.586617 162.089145 0.000001 -11.587383 2.561628 14.785089 0.465788 -0.180874 -0.000000 -9.293387 1.638673 1.265983 -0.085269 -0.114684 0.000000 -9.400823 0.822471 -1.761310 -2.066465 0.496337 -0.000000 -9.436750 -0.000002 0.984228 -1.576836 0.410278 -0.000003 -12.132970 -1.213298 -1.866255 7.740304 -1.309131 0.000001 -6.347836 -0.555350 -1.288347 8.847359 4.118217 0.000009 -6.275275 -1.106504 0.912088 0.082013 2.641035 0.000002 -9.728081 0.000001 0.000001 0.000003 -0.000000 0.000000 -8.666386 -5.270926 -0.000009 19.882168 6.277717 -19.077803 -0.000011 0.000004 -5.679123 -37.619978 -82.378789 -27.209024 -0.000003 -0.000008 13.670366 -24.812269 5.827956 -21.734253 -0.000009 0.000000 -0.046747 -2.462296 -1.087990 -3.883506 2.884649 -2.887746 -0.000000 -0.000002 0.000001 -10.356050 -0.000014 0.066397 0.000002 0.000000 -0.000001 -0.000003 -8.666405 -5.270924 -0.000007 -24.541119 -12.906044 19.077805 -0.000009 0.000004 -13.299371 15.964778 65.214817 27.209007 -0.000018 -0.000003 453.737444 33.613495 -456.729777 21.734259 0.000009 0.000001 -2.306563 -15.160629 -8.755579 3.883512 2.884664 -2.887753 -0.000003 0.000002 -0.000003 10.356047 0.000008 0.066388 -0.000004 0.000002 -0.000003 -10.145191 0.000003 0.000002 8.944808 10.351614 0.222999 0.000006 45.059086 -0.000008 -0.047793 0.000001 0.000000 0.000016 37.058640 -0.000011 2.856094 -11.551115 6.671205 0.000002 3.397476 -0.000003 0.000001 -0.000002 -0.000001 0.000003 0.000001 -13.305602 4.652829 -0.000002 0.000001 0.000002 0.000000 -4.190948 0.000001 -0.000002 0.000001 10.145197 0.000004 -0.000001 12.299113 -27.043168 -2.714551 -0.000003 45.059086 -0.000002 1.483573 0.000000 -0.000000 -0.000000 37.058609 -0.000008 -6.681414 -12.616134 8.365317 -0.000001 3.397476 0.000000 -0.000000 -0.000005 -0.000000 -0.000003 -0.000007 -13.305597 15.022026 -0.000002 -0.000001 -0.000004 -0.000001 -4.652041 -0.000002 -0.000001 -0.000001 
-28.457111 6.260347 -88.573280 248.796826 -111.622599 162.098994 -0.000001 -11.587395 2.561636 14.780994 0.463022 -0.197348 0.000002 -9.293373 1.638677 1.263491 -0.085535 -0.117899 -0.000001 -9.400840 0.822473 -1.767472 -2.084349 0.489228 -0.000003 -9.436752 0.000009 0.981423 -1.580858 0.400689 -0.000003 -12.132954 -1.213302 -1.858897 7.708855 -1.288946 -0.000001 -6.347818 -0.555350 -1.288239 8.798815 4.135997 0.000001 -6.275302 -1.106497 0.911582 0.071869 2.670247 0.000004 -9.728065 0.000006 0.000001 0.000006 -0.000000 0.000002 -8.666397 -5.270928 -0.000005 19.861884 6.258352 -19.077797 -0.000013 0.000001 -5.663532 -37.653559 -82.356843 -27.209021 -0.000011 -0.000013 13.704296 -24.755672 5.830480 -21.734274 -0.000008 0.000005 -0.045583 -2.445506 -1.068261 -3.883535 2.884650 -2.887752 -0.000005 -0.000007 0.000003 -10.356069 -0.000002 0.066379 -0.000001 -0.000003 0.000003 -0.000001 -8.666401 -5.270929 -0.000007 -24.530804 -12.795314 19.077797 -0.000006 -0.000005 -13.177916 16.371048 64.802724 27.209015 0.000004 -0.000010 452.610654 33.687866 -454.699353 21.734255 -0.000001 -0.000008 -2.030768 -15.312408 -7.647380 3.883518 2.884639 -2.887747 0.000003 0.000003 -0.000005 10.356047 -0.000003 0.066393 0.000000 0.000001 -0.000002 -10.145193 0.000002 0.000001 8.945415 10.371783 0.225994 -0.000003 45.059074 -0.000006 -0.048212 -0.000002 0.000000 0.000007 37.058605 -0.000002 2.867842 -11.606915 6.687447 0.000002 3.397476 -0.000002 0.000000 0.000001 0.000000 0.000001 -0.000001 -13.305601 4.652426 0.000000 0.000002 0.000001 -0.000000 -4.190943 -0.000000 -0.000000 0.000001 10.145192 -0.000010 0.000007 12.305496 -27.059080 -2.711399 -0.000000 45.059082 -0.000001 1.497491 0.000001 0.000000 0.000002 37.058601 -0.000002 -6.682184 -12.632366 8.359387 -0.000001 3.397484 0.000005 -0.000000 -0.000002 -0.000000 -0.000003 0.000015 -13.305593 15.012259 0.000002 0.000000 0.000002 -0.000007 -4.652038 0.000001 0.000006 -0.000000 
-28.460360 6.255919 -88.573746 248.797181 -111.659311 162.097642 0.000002 -11.587375 2.561625 14.776254 0.460608 -0.213940 0.000002 -9.293374 1.638664 1.260180 -0.085475 -0.122571 -0.000000 -9.400823 0.822470 -1.768771 -2.095242 0.483519 0.000002 -9.436754 -0.000003 0.980665 -1.583233 0.393666 -0.000001 -12.132946 -1.213285 -1.861588 7.675073 -1.275944 -0.000000 -6.347816 -0.555374 -1.286185 8.745022 4.159459 -0.000003 -6.275266 -1.106496 0.922845 0.060704 2.703541 -0.000009 -9.728081 0.000008 0.000001 0.000002 0.000001 -0.000002 -8.666386 -5.270906 -0.000006 19.836075 6.238755 -19.077799 -0.000001 0.000003 -5.664219 -37.711387 -82.345594 -27.209044 -0.000001 -0.000018 13.679952 -24.666924 5.800364 -21.734262 -0.000002 0.000009 -0.043644 -2.441650 -1.024514 -3.883515 2.884650 -2.887745 -0.000000 -0.000003 -0.000001 -10.356071 -0.000003 0.066394 -0.000000 0.000000 0.000000 -0.000003 -8.666389 -5.270909 -0.000008 -24.533117 -12.672908 19.077816 0.000005 0.000002 -13.035465 16.957488 64.332179 27.208996 0.000006 -0.000012 451.341523 33.740291 -452.414355 21.734251 0.000008 0.000001 -1.651329 -15.642610 -6.102792 3.883519 2.884641 -2.887748 0.000002 -0.000005 -0.000005 10.356062 -0.000011 0.066392 0.000003 -0.000000 -0.000002 -10.145191 -0.000004 -0.000007 8.949521 10.389719 0.235245 0.000004 45.059074 -0.000010 -0.052639 -0.000002 0.000000 0.000003 37.058598 -0.000003 2.870979 -11.659959 6.693298 -0.000003 3.397476 -0.000005 0.000000 -0.000001 -0.000002 0.000003 0.000009 -13.305604 4.667730 -0.000004 -0.000000 0.000003 -0.000000 -4.190949 -0.000001 0.000002 -0.000001 10.145197 0.000022 -0.000008 12.319897 -27.064285 -2.700180 -0.000002 45.059074 -0.000008 1.506736 -0.000001 -0.000000 0.000002 37.058601 -0.000008 -6.681084 -12.651278 8.343659 -0.000002 3.397476 0.000000 -0.000000 -0.000000 -0.000000 -0.000004 -0.000002 -13.305594 15.011567 0.000007 -0.000000 -0.000001 -0.000008 -4.652041 -0.000002 0.000002 -0.000000 
